<?xml version="1.0" standalone="no"?><!-- Generator: Gravit.io --><svg xmlns="http://www.w3.org/2000/svg" xmlns:xlink="http://www.w3.org/1999/xlink" style="isolation:isolate" viewBox="0 0 448 512" width="448" height="512"><defs><clipPath id="_clipPath_wLO0tWF9ZMODGcyMQx53Nu9ZUeIPsl6X"><rect width="448" height="512"/></clipPath></defs><g clip-path="url(#_clipPath_wLO0tWF9ZMODGcyMQx53Nu9ZUeIPsl6X)"><path d=" M 437.2 403.5 L 320 215 L 320 64 L 328 64 C 341.3 64 352 53.3 352 40 L 352 24 C 352 10.7 341.3 0 328 0 L 120 0 C 106.7 0 96 10.7 96 24 L 96 40 C 96 53.3 106.7 64 120 64 L 128 64 L 128 215 L 10.8 403.5 C -18.5 450.6 15.3 512 70.9 512 L 377.1 512 C 432.8 512 466.5 450.5 437.2 403.5 L 437.2 403.5 Z  M 137.9 320 L 186.1 242.4 C 189.8 237.2 191.9 230.8 191.9 224 L 191.9 64 L 255.9 64 L 255.9 224 C 255.9 230.9 258.1 237.2 261.7 242.4 L 309.9 320 L 137.9 320 L 137.9 320 Z " fill="rgb(255,255,255)"/></g></svg>